<svg xmlns="http://www.w3.org/2000/svg" viewBox="0 0 269 95">
<defs><style>.st0{fill:#00A6E2;} .st1{fill:#A4D45B;} .st2{fill:#777874;}</style></defs>
<path class="st0" d="M0.5,24h23.8v5.7H7v10.1h16.2v5.5H7v15.5H0.5V24z"/>
<path class="st0" d="M26.8,35.8h6V40h0.1c0.7-1.4,1.7-2.6,2.9-3.5c1.3-0.9,2.8-1.4,4.4-1.3H41c0.2,0,0.5,0.1,0.7,0.1V41
	c-0.4-0.1-0.7-0.2-1.1-0.2c-0.3,0-0.6,0-0.9,0c-1.2-0.1-2.4,0.2-3.4,0.8c-0.8,0.5-1.5,1.1-2,1.9c-0.5,0.7-0.8,1.4-1,2.2
	c-0.2,0.6-0.3,1.2-0.3,1.8v13.3h-6.2V35.8z"/>
<path class="st0" d="M67.2,48.6v0.8c0,0.3,0,0.6-0.1,0.8h-19c0.1,0.9,0.3,1.7,0.7,2.5c0.4,0.7,0.9,1.4,1.6,1.9
	c0.7,0.5,1.4,1,2.2,1.3c0.8,0.3,1.7,0.5,2.6,0.5c1.4,0,2.7-0.3,4-0.9c1.1-0.6,2-1.4,2.7-2.4l4.1,3.3c-2.5,3.3-6,5-10.7,5
	c-1.8,0-3.6-0.3-5.3-0.9c-1.6-0.6-3-1.5-4.2-2.6c-1.2-1.1-2.2-2.5-2.8-4.1c-0.7-1.7-1-3.6-1-5.5c0-1.9,0.3-3.7,1-5.5
	c1.3-3.2,3.8-5.7,7-6.9c1.7-0.7,3.4-1,5.2-1c1.6,0,3.3,0.3,4.8,0.9c1.4,0.6,2.8,1.4,3.8,2.5c1.1,1.2,2,2.6,2.5,4.2
	C66.9,44.6,67.2,46.6,67.2,48.6z M61,45.8c0-0.8-0.1-1.5-0.3-2.3c-0.4-1.5-1.5-2.7-2.9-3.2c-0.8-0.3-1.7-0.5-2.6-0.5
	c-1.7,0-3.4,0.6-4.8,1.7c-1.3,1.1-2.1,2.7-2.2,4.3L61,45.8z"/>
<path class="st0" d="M96.8,60.8h-5.9V57h-0.1c-0.8,1.4-2.1,2.6-3.6,3.3c-1.6,0.8-3.3,1.2-5,1.1c-1.8,0-3.5-0.3-5.1-1
	c-1.5-0.7-2.8-1.7-3.8-2.9c-1.1-1.2-1.9-2.7-2.4-4.2c-0.6-1.7-0.9-3.4-0.9-5.2c0-1.8,0.3-3.5,0.9-5.2c0.6-1.5,1.4-2.9,2.5-4.2
	c2.2-2.5,5.4-3.8,8.8-3.8c1.9,0,3.8,0.4,5.4,1.3c0.6,0.3,1.2,0.8,1.7,1.2c0.4,0.4,0.8,0.8,1.2,1.3h0.2V24.1h6.2L96.8,60.8z
	 M76.2,48.2c0,1,0.2,2,0.4,2.9c0.3,0.9,0.7,1.8,1.3,2.6c0.6,0.8,1.4,1.4,2.2,1.9c2,1,4.3,1,6.2,0c0.9-0.5,1.7-1.1,2.3-1.8
	c0.6-0.8,1.1-1.6,1.5-2.6c0.3-0.9,0.5-1.9,0.5-2.9c0-1-0.2-2-0.5-2.9c-0.3-1-0.8-1.8-1.5-2.6c-0.6-0.8-1.4-1.4-2.3-1.9
	c-0.9-0.5-2-0.7-3.1-0.7c-1.1,0-2.2,0.2-3.2,0.7c-0.9,0.5-1.6,1.1-2.2,1.9c-0.6,0.8-1,1.6-1.3,2.6C76.4,46.3,76.2,47.2,76.2,48.2z"
	/>
<path class="st0" d="M126.6,60.8h-5.9V57h-0.1c-0.8,1.4-2.1,2.6-3.6,3.4c-1.6,0.8-3.3,1.2-5,1.1c-1.8,0-3.5-0.3-5.1-1.1
	c-1.5-0.7-2.8-1.6-3.9-2.8c-1.1-1.2-1.9-2.7-2.4-4.2c-0.6-1.7-0.9-3.4-0.9-5.2c0-1.8,0.3-3.5,0.9-5.2c0.6-1.5,1.4-2.9,2.5-4.2
	c2.2-2.4,5.4-3.8,8.7-3.8c1.9,0,3.8,0.4,5.4,1.3c0.6,0.3,1.2,0.8,1.8,1.3c0.4,0.4,0.8,0.8,1.2,1.3h0.2V24.1h6.2L126.6,60.8z
	 M106.1,48.2c0,1,0.2,2,0.4,2.9c0.3,0.9,0.7,1.8,1.3,2.6c0.6,0.8,1.4,1.4,2.2,1.9c2,1,4.3,1,6.2,0c0.9-0.5,1.7-1.1,2.3-1.8
	c0.6-0.8,1.1-1.6,1.5-2.6c0.3-0.9,0.5-1.9,0.5-2.9c0-1-0.2-2-0.5-2.9c-0.3-1-0.8-1.8-1.5-2.6c-0.6-0.8-1.4-1.4-2.3-1.9
	c-0.9-0.5-2-0.7-3.1-0.7c-1.1,0-2.2,0.2-3.2,0.7c-0.9,0.4-1.6,1.1-2.2,1.8c-0.6,0.8-1,1.6-1.3,2.6C106.2,46.2,106.1,47.2,106.1,48.2
	z"/>
<path class="st0" d="M131.1,27.4c0-1,0.4-1.9,1.1-2.6c0.7-0.7,1.7-1.1,2.8-1.1c1.1,0,2.1,0.4,2.9,1.1c1.5,1.4,1.6,3.7,0.2,5.2
	c-0.1,0.1-0.1,0.1-0.2,0.2c-0.8,0.7-1.8,1.1-2.9,1.1c-1,0-2-0.4-2.8-1.1C131.5,29.3,131.1,28.4,131.1,27.4z M132,35.8h6.2v24.9H132
	L132,35.8z"/>
<path class="st0" d="M167.3,48.6v0.8c0,0.3,0,0.6-0.1,0.8h-19c0.1,0.9,0.3,1.7,0.7,2.5c0.4,0.7,0.9,1.4,1.6,1.9
	c0.7,0.5,1.4,1,2.2,1.3c0.8,0.3,1.7,0.5,2.6,0.5c1.4,0,2.7-0.3,3.9-0.9c1.1-0.6,2-1.4,2.7-2.4l4.2,3.3c-2.5,3.3-6,5-10.7,5
	c-1.8,0-3.6-0.3-5.4-0.9c-1.6-0.6-3-1.5-4.2-2.6c-1.2-1.1-2.2-2.5-2.8-4.1c-0.7-1.7-1-3.6-1-5.5c0-1.9,0.3-3.7,1-5.5
	c1.3-3.2,3.8-5.7,7-6.9c1.7-0.7,3.4-1,5.2-1c1.6,0,3.3,0.3,4.8,0.9c1.4,0.6,2.8,1.4,3.8,2.5c1.1,1.2,2,2.6,2.5,4.2
	C167.1,44.6,167.4,46.6,167.3,48.6z M161.1,45.8c0-0.8-0.1-1.5-0.3-2.3c-0.4-1.5-1.5-2.7-2.9-3.2c-0.8-0.3-1.7-0.5-2.6-0.5
	c-1.7,0-3.4,0.6-4.8,1.7c-1.3,1.1-2.1,2.7-2.2,4.3L161.1,45.8z"/>
<path class="st1" d="M175.7,24H186l9.6,26.1h0.2l9.4-26.1h10.3v36.8h-6.5V31.2h-0.1l-11.2,29.6h-4.6l-11-29.6H182v29.6h-6.2
	L175.7,24z"/>
<path class="st1" d="M236.4,57.6h-0.2c-0.7,1.2-1.8,2.1-3,2.7c-1.5,0.7-3.1,1.1-4.7,1.1c-1.1,0-2.1-0.1-3.1-0.4
	c-1.1-0.3-2.1-0.7-3-1.3c-0.9-0.6-1.7-1.4-2.3-2.4c-0.6-1.1-1-2.4-0.9-3.7c-0.1-1.6,0.5-3.2,1.6-4.5c1.1-1.2,2.5-2,4.1-2.5
	c1.8-0.6,3.7-1,5.5-1.2c2-0.2,4-0.3,6-0.3v-0.6c0.1-1.4-0.5-2.7-1.7-3.5c-1.2-0.8-2.6-1.2-4-1.1c-1.3,0-2.6,0.3-3.8,0.8
	c-1.1,0.5-2.1,1.2-3,2l-3.2-3.8c1.4-1.3,3.1-2.3,4.9-3c1.8-0.7,3.7-1,5.6-1c1.9-0.1,3.7,0.3,5.5,0.9c1.3,0.5,2.5,1.4,3.4,2.4
	c0.8,1,1.4,2.1,1.7,3.4c0.3,1.2,0.5,2.5,0.5,3.7v15.2h-5.8L236.4,57.6z M236.3,49.4h-1.4c-1,0-2.1,0-3.2,0.1c-1,0.1-2.1,0.3-3.1,0.6
	c-0.9,0.3-1.7,0.7-2.3,1.2c-0.6,0.6-1,1.4-0.9,2.2c0,0.5,0.1,1,0.4,1.5c0.2,0.4,0.6,0.8,1,1c0.4,0.2,0.9,0.4,1.4,0.5
	c0.5,0.1,1,0.2,1.6,0.2c1.8,0.1,3.6-0.5,4.9-1.7c1.2-1.3,1.8-3,1.7-4.7L236.3,49.4z"/>
<path class="st1" d="M264.2,42.8c-0.6-0.8-1.3-1.4-2.2-1.8c-0.9-0.5-2-0.7-3-0.7c-1,0-2.1,0.2-3,0.7c-0.8,0.4-1.6,1.1-2.2,1.8
	c-0.6,0.8-1,1.6-1.3,2.6c-0.3,0.9-0.4,1.9-0.4,2.9c0,1,0.1,1.9,0.4,2.9c0.3,0.9,0.7,1.8,1.4,2.6c0.6,0.8,1.3,1.4,2.2,1.8
	c1,0.5,2,0.7,3.1,0.7c1,0,2-0.2,2.9-0.6c0.9-0.3,1.7-0.9,2.3-1.7l3.9,4c-1.1,1.2-2.5,2-4,2.6c-1.7,0.6-3.4,0.9-5.2,0.9
	c-1.8,0-3.5-0.3-5.2-0.9c-3.3-1.1-5.9-3.6-7.2-6.8c-0.7-1.8-1.1-3.7-1.1-5.6c0-1.9,0.3-3.7,1.1-5.5c0.7-1.6,1.6-3,2.9-4.2
	c1.2-1.2,2.7-2.1,4.3-2.7c3.4-1.3,7.1-1.2,10.5,0.1c1.6,0.6,3,1.6,4.1,2.9L264.2,42.8z"/>
<polygon class="st1" points="81.6,24.1 81.6,16.3 57.4,0.5 33.1,16.3 33.1,24.1 57.4,8.3 "/>
<polygon class="st1" points="75,10 75,0.5 68.3,0.5 68.3,5.7 "/>
<path class="st2" d="M23.1,86.2L23.1,86.2l3.6-12.2H29l3.6,12.2l0,0L36,74.1h2.3l-4.5,15.3h-2.2l-3.7-12.3l0,0l-3.8,12.3h-2.2
	l-4.5-15.3h2.3L23.1,86.2z"/>
<path class="st2" d="M48.2,84.1v0.3c0,0.1,0,0.2,0,0.3H40c0,0.4,0.1,0.8,0.3,1.2c0.2,0.4,0.4,0.7,0.7,1c0.6,0.6,1.5,0.9,2.3,0.9
	c0.6,0,1.2-0.1,1.8-0.4c0.5-0.3,0.9-0.6,1.2-1.1l1.4,1.1c-0.5,0.7-1.2,1.2-1.9,1.6c-1.5,0.6-3.1,0.7-4.6,0.1
	c-0.6-0.2-1.2-0.6-1.7-1.1c-0.5-0.5-0.9-1.1-1.1-1.7c-0.3-0.7-0.4-1.4-0.4-2.2c0-0.7,0.1-1.5,0.4-2.2c0.2-0.6,0.6-1.2,1.1-1.7
	c0.5-0.5,1.1-0.9,1.7-1.1c1.3-0.5,2.8-0.5,4.1,0c0.6,0.2,1.1,0.6,1.6,1.1c0.4,0.5,0.8,1.1,1,1.7C48.1,82.6,48.2,83.4,48.2,84.1z
	 M46.1,83.3c0-0.4-0.1-0.8-0.2-1.1c-0.1-0.3-0.3-0.7-0.5-0.9c-0.2-0.3-0.5-0.5-0.9-0.6c-0.4-0.2-0.8-0.2-1.2-0.2
	c-0.4,0-0.8,0.1-1.2,0.2c-0.4,0.1-0.7,0.4-1,0.6c-0.3,0.3-0.5,0.6-0.7,0.9c-0.2,0.3-0.3,0.7-0.3,1.1H46.1z"/>
<path class="st2" d="M58.5,79.4c0.6-0.4,1.3-0.6,2-0.6c0.7,0,1.3,0.2,1.9,0.5c0.6,0.4,1.1,0.9,1.3,1.6c0.3-0.6,0.8-1.2,1.4-1.5
	c0.6-0.3,1.3-0.5,2-0.5c0.6,0,1.2,0.1,1.7,0.3c0.5,0.2,0.9,0.5,1.2,0.9c0.3,0.4,0.6,0.8,0.7,1.3c0.2,0.5,0.3,1.1,0.3,1.6v6.3h-2
	v-5.7c0-0.4,0-0.8-0.1-1.2c-0.1-0.4-0.2-0.7-0.4-1c-0.2-0.3-0.4-0.5-0.7-0.7c-0.3-0.2-0.7-0.3-1.1-0.3c-0.4,0-0.8,0.1-1.2,0.3
	c-0.3,0.2-0.6,0.4-0.8,0.8c-0.2,0.3-0.4,0.6-0.4,1c-0.1,0.4-0.1,0.8-0.1,1.2v5.5h-2v-6c0-0.4,0-0.7-0.1-1.1
	c-0.1-0.3-0.2-0.6-0.4-0.8c-0.2-0.2-0.4-0.4-0.7-0.6c-0.3-0.1-0.7-0.2-1-0.2c-0.7,0-1.4,0.3-1.9,0.9c-0.5,0.7-0.8,1.6-0.7,2.4v5.4
	h-2v-8c0-0.3,0-0.6,0-1.1s0-0.8-0.1-1.1h1.9c0,0.3,0,0.6,0.1,0.9c0,0.3,0,0.6,0,0.8h0.1C57.6,80.3,58,79.8,58.5,79.4z"/>
<path class="st2" d="M80.2,82.7c0.1-0.7-0.2-1.3-0.7-1.7c-0.5-0.4-1.2-0.6-1.8-0.6c-0.6,0-1.1,0.1-1.6,0.3c-0.5,0.2-0.9,0.5-1.3,0.8
	l-1.1-1.3c0.5-0.5,1.2-0.9,1.8-1.1c0.7-0.3,1.5-0.4,2.3-0.4c0.7,0,1.3,0.1,1.9,0.3c0.5,0.2,1,0.5,1.3,0.8c0.3,0.4,0.6,0.8,0.8,1.3
	c0.2,0.5,0.3,1,0.3,1.6v4.5c0,0.3,0,0.7,0,1.1c0,0.3,0.1,0.6,0.1,0.9h-1.8c-0.1-0.5-0.2-1-0.2-1.5h-0.1c-0.4,0.5-0.8,1-1.4,1.3
	c-0.6,0.3-1.3,0.5-2,0.4c-0.4,0-0.8-0.1-1.3-0.2c-0.4-0.1-0.8-0.3-1.2-0.5c-0.4-0.3-0.7-0.6-0.9-1c-0.3-0.5-0.4-1-0.4-1.5
	c0-0.7,0.2-1.3,0.6-1.8c0.5-0.5,1-0.8,1.6-1c0.7-0.2,1.5-0.4,2.3-0.5c0.8,0,1.7-0.1,2.5-0.1V82.7z M79.7,84.5c-0.5,0-1,0-1.6,0.1
	c-0.5,0-1,0.1-1.5,0.3c-0.4,0.1-0.8,0.3-1.1,0.6c-0.3,0.3-0.4,0.6-0.4,1c0,0.3,0.1,0.5,0.2,0.8c0.1,0.2,0.3,0.4,0.5,0.5
	c0.2,0.1,0.4,0.2,0.7,0.3c0.2,0.1,0.5,0.1,0.8,0.1c0.8,0.1,1.6-0.3,2.2-0.8c0.5-0.6,0.8-1.3,0.8-2.1v-0.5L79.7,84.5z"/>
<path class="st2" d="M87.1,83.6L87.1,83.6l4.3-4.4h2.7l-4.8,4.6l5.2,5.6h-2.8L87.2,84h-0.1v5.3h-2V73h2L87.1,83.6z"/>
<path class="st2" d="M105,84.1v0.3c0,0.1,0,0.2,0,0.3h-8.1c0,0.4,0.1,0.8,0.3,1.2c0.2,0.4,0.4,0.7,0.7,1c0.6,0.6,1.5,0.9,2.3,0.9
	c0.6,0,1.2-0.1,1.8-0.4c0.5-0.3,0.9-0.6,1.2-1.1l1.4,1.1c-0.5,0.7-1.2,1.2-1.9,1.6c-1.5,0.6-3.1,0.7-4.6,0.1
	c-0.6-0.2-1.2-0.6-1.7-1.1c-0.5-0.5-0.9-1.1-1.1-1.7c-0.3-0.7-0.4-1.4-0.4-2.2c0-0.7,0.1-1.5,0.4-2.2c0.2-0.6,0.6-1.2,1.1-1.7
	c0.5-0.5,1.1-0.8,1.7-1.1c1.3-0.5,2.8-0.5,4.1,0c0.6,0.2,1.1,0.6,1.6,1.1c0.4,0.5,0.8,1.1,1,1.7C104.9,82.7,105,83.4,105,84.1z
	 M102.9,83.3c0-0.4-0.1-0.8-0.2-1.1c-0.1-0.3-0.3-0.7-0.5-0.9c-0.2-0.3-0.5-0.5-0.9-0.6c-0.4-0.2-0.8-0.2-1.2-0.2
	c-0.4,0-0.8,0.1-1.2,0.2c-0.4,0.1-0.7,0.4-1,0.6c-0.3,0.3-0.5,0.6-0.7,0.9c-0.2,0.4-0.3,0.7-0.3,1.1H102.9z"/>
<path class="st2" d="M114.2,80.7c0.3-0.5,0.7-1,1.2-1.3c0.6-0.4,1.3-0.6,2-0.5c0.6,0,1.2,0.1,1.7,0.3c0.5,0.2,0.9,0.5,1.2,0.9
	c0.3,0.4,0.6,0.8,0.7,1.3c0.2,0.5,0.2,1.1,0.2,1.6v6.3h-2v-5.7c0-0.4,0-0.8-0.1-1.2c-0.1-0.4-0.2-0.7-0.4-1
	c-0.2-0.3-0.4-0.5-0.7-0.7c-0.4-0.2-0.8-0.3-1.2-0.3c-0.8,0-1.5,0.3-2,0.9c-0.5,0.7-0.8,1.6-0.8,2.4v5.4h-2V73h2L114.2,80.7
	L114.2,80.7z"/>
<path class="st2" d="M134.5,84.2c0,0.7-0.1,1.5-0.4,2.2c-0.3,0.6-0.7,1.2-1.2,1.7c-0.5,0.5-1.1,0.9-1.8,1.1c-1.4,0.5-2.9,0.5-4.3,0
	c-0.7-0.2-1.2-0.6-1.8-1.1c-0.5-0.5-0.9-1.1-1.2-1.7c-0.3-0.7-0.4-1.4-0.4-2.2c0-0.7,0.1-1.5,0.4-2.2c0.5-1.3,1.6-2.3,2.9-2.8
	c1.4-0.5,2.9-0.5,4.3,0c0.7,0.3,1.3,0.6,1.8,1.1c0.5,0.5,0.9,1,1.2,1.7C134.4,82.7,134.5,83.4,134.5,84.2z M132.4,84.2
	c0-0.5-0.1-0.9-0.2-1.4c-0.1-0.4-0.4-0.8-0.7-1.2c-0.3-0.3-0.7-0.6-1.1-0.8c-0.9-0.4-2-0.4-2.9,0c-0.4,0.2-0.8,0.5-1.1,0.8
	c-0.3,0.3-0.5,0.7-0.7,1.2c-0.3,0.9-0.3,1.9,0,2.8c0.1,0.4,0.4,0.8,0.7,1.2c0.3,0.3,0.7,0.6,1.1,0.8c0.9,0.4,2,0.4,2.9,0
	c0.4-0.2,0.8-0.5,1.1-0.8c0.3-0.3,0.5-0.7,0.7-1.2C132.3,85.1,132.4,84.7,132.4,84.2L132.4,84.2z"/>
<path class="st2" d="M140,79.4c0.6-0.4,1.3-0.6,2-0.6c0.7,0,1.3,0.2,1.9,0.5c0.6,0.4,1.1,0.9,1.3,1.6c0.3-0.6,0.8-1.2,1.4-1.5
	c0.6-0.3,1.3-0.5,2-0.5c0.6,0,1.2,0.1,1.7,0.3c0.5,0.2,0.9,0.5,1.2,0.9c0.3,0.4,0.6,0.8,0.7,1.3c0.2,0.5,0.2,1.1,0.2,1.6v6.3h-2
	v-5.7c0-0.4,0-0.8-0.1-1.2c-0.1-0.4-0.2-0.7-0.4-1c-0.2-0.3-0.4-0.5-0.7-0.7c-0.3-0.2-0.7-0.3-1.1-0.3c-0.4,0-0.8,0.1-1.2,0.3
	c-0.3,0.2-0.6,0.4-0.8,0.8c-0.2,0.3-0.4,0.6-0.4,1c-0.1,0.4-0.1,0.8-0.1,1.2v5.5h-2v-6c0-0.4,0-0.7-0.1-1.1
	c-0.1-0.3-0.2-0.6-0.4-0.8c-0.2-0.2-0.4-0.4-0.7-0.6c-0.3-0.1-0.7-0.2-1-0.2c-0.7,0-1.4,0.3-1.9,0.9c-0.5,0.7-0.8,1.6-0.7,2.4v5.4
	h-2v-8c0-0.3,0-0.6,0-1.1s0-0.8-0.1-1.1h1.9c0,0.3,0,0.6,0.1,0.9c0,0.3,0,0.6,0,0.8h0.1C139.1,80.3,139.5,79.8,140,79.4z"/>
<path class="st2" d="M164.9,84.1v0.3c0,0.1,0,0.2,0,0.3h-8.1c0,0.4,0.1,0.8,0.3,1.2c0.2,0.4,0.4,0.7,0.7,1c0.6,0.6,1.5,0.9,2.3,0.9
	c0.6,0,1.2-0.1,1.8-0.4c0.5-0.3,0.9-0.6,1.2-1.1l1.4,1.1c-0.5,0.7-1.2,1.2-1.9,1.6c-1.5,0.6-3.1,0.7-4.6,0.1
	c-0.6-0.2-1.2-0.6-1.7-1.1c-0.5-0.5-0.9-1.1-1.1-1.7c-0.3-0.7-0.4-1.4-0.4-2.2c0-0.7,0.1-1.5,0.4-2.2c0.2-0.6,0.6-1.2,1.1-1.7
	c0.5-0.5,1.1-0.9,1.7-1.1c1.3-0.5,2.8-0.5,4.1,0c0.6,0.2,1.1,0.6,1.6,1.1c0.4,0.5,0.8,1.1,1,1.7C164.8,82.7,164.9,83.4,164.9,84.1z
	 M162.8,83.3c0-0.4-0.1-0.8-0.2-1.1c-0.1-0.3-0.3-0.7-0.5-0.9c-0.2-0.3-0.5-0.5-0.9-0.6c-0.4-0.2-0.8-0.2-1.2-0.2
	c-0.4,0-0.8,0.1-1.2,0.2c-0.4,0.1-0.7,0.4-1,0.6c-0.3,0.3-0.5,0.6-0.7,0.9c-0.2,0.4-0.3,0.7-0.3,1.1H162.8z"/>
<path class="st2" d="M174.1,94.5h-2V79.1h2v1.6h0.1c0.4-0.6,0.9-1,1.4-1.3c0.7-0.4,1.5-0.5,2.2-0.5c0.7,0,1.4,0.1,2.1,0.4
	c0.6,0.3,1.2,0.7,1.6,1.1c0.4,0.5,0.8,1.1,1,1.7c0.2,0.7,0.4,1.4,0.4,2.1c0,0.7-0.1,1.4-0.4,2.1c-0.2,0.6-0.6,1.2-1,1.7
	c-0.5,0.5-1,0.9-1.6,1.2c-0.7,0.3-1.4,0.4-2.1,0.4c-0.7,0-1.4-0.2-2.1-0.5c-0.6-0.3-1.2-0.8-1.5-1.3h-0.1L174.1,94.5z M180.8,84.2
	c0-0.5-0.1-0.9-0.2-1.4c-0.1-0.4-0.4-0.8-0.6-1.2c-0.3-0.3-0.7-0.6-1.1-0.8c-0.5-0.2-1-0.3-1.5-0.3c-0.5,0-1,0.1-1.4,0.3
	c-0.4,0.2-0.8,0.5-1.1,0.8c-0.3,0.4-0.5,0.8-0.7,1.2c-0.3,0.9-0.3,1.9,0,2.8c0.2,0.4,0.4,0.8,0.7,1.2c0.3,0.3,0.7,0.6,1.1,0.8
	c0.4,0.2,0.9,0.3,1.4,0.3c0.5,0,1-0.1,1.5-0.3c0.4-0.2,0.8-0.5,1.1-0.8c0.3-0.4,0.5-0.8,0.6-1.2C180.7,85.1,180.8,84.7,180.8,84.2
	L180.8,84.2z"/>
<path class="st2" d="M195.5,84.2c0,0.7-0.1,1.5-0.4,2.2c-0.3,0.6-0.7,1.2-1.2,1.7c-0.5,0.5-1.1,0.9-1.8,1.1c-1.4,0.5-2.9,0.5-4.4,0
	c-0.7-0.2-1.2-0.6-1.8-1.1c-0.5-0.5-0.9-1.1-1.1-1.7c-0.3-0.7-0.4-1.4-0.4-2.2c0-0.7,0.1-1.5,0.4-2.2c0.5-1.3,1.6-2.3,2.9-2.8
	c1.4-0.5,2.9-0.5,4.4,0c0.7,0.3,1.3,0.6,1.8,1.1c0.5,0.5,0.9,1,1.2,1.7C195.4,82.7,195.5,83.4,195.5,84.2z M193.4,84.2
	c0-0.5-0.1-0.9-0.2-1.4c-0.1-0.4-0.4-0.8-0.7-1.2c-0.3-0.3-0.7-0.6-1.1-0.8c-0.9-0.4-2-0.4-2.9,0c-0.4,0.2-0.8,0.5-1.1,0.8
	c-0.3,0.3-0.5,0.7-0.7,1.2c-0.3,0.9-0.3,1.9,0,2.8c0.1,0.4,0.4,0.8,0.7,1.2c0.3,0.3,0.7,0.6,1.1,0.8c0.9,0.4,2,0.4,2.9,0
	c0.4-0.2,0.8-0.5,1.1-0.8c0.3-0.3,0.5-0.7,0.7-1.2C193.3,85.1,193.4,84.7,193.4,84.2L193.4,84.2z"/>
<path class="st2" d="M203.3,81.7c-0.2-0.4-0.6-0.7-1-0.9c-0.4-0.2-0.9-0.4-1.4-0.4c-0.2,0-0.5,0-0.7,0.1c-0.2,0-0.4,0.1-0.6,0.2
	c-0.2,0.1-0.3,0.2-0.4,0.4c-0.1,0.2-0.2,0.4-0.2,0.6c0,0.4,0.2,0.8,0.6,1c0.6,0.3,1.1,0.5,1.8,0.6c0.5,0.1,0.9,0.2,1.4,0.4
	c0.4,0.1,0.8,0.3,1.1,0.6c0.3,0.2,0.5,0.5,0.7,0.8c0.2,0.4,0.3,0.8,0.3,1.2c0,0.5-0.1,1.1-0.4,1.5c-0.2,0.4-0.5,0.7-0.9,1
	c-0.4,0.3-0.8,0.5-1.3,0.6c-0.5,0.1-1,0.2-1.5,0.2c-0.8,0-1.5-0.2-2.3-0.4c-0.7-0.3-1.4-0.8-1.8-1.4l1.4-1.2c0.3,0.4,0.7,0.8,1.1,1
	c0.5,0.3,1,0.4,1.6,0.4c0.2,0,0.5,0,0.7-0.1c0.2,0,0.4-0.1,0.6-0.2c0.2-0.1,0.3-0.3,0.5-0.4c0.1-0.2,0.2-0.5,0.2-0.7
	c0-0.5-0.3-0.9-0.7-1.1c-0.6-0.3-1.3-0.5-2-0.7c-0.3-0.1-0.7-0.2-1-0.3c-0.4-0.1-0.7-0.3-1-0.5c-0.3-0.2-0.5-0.5-0.7-0.8
	c-0.2-0.4-0.3-0.8-0.3-1.2c0-0.5,0.1-1,0.3-1.4c0.2-0.4,0.5-0.7,0.9-1c0.4-0.3,0.8-0.4,1.2-0.6c0.5-0.1,0.9-0.2,1.4-0.2
	c0.7,0,1.4,0.1,2.1,0.4c0.6,0.3,1.2,0.7,1.6,1.2L203.3,81.7z"/>
<path class="st2" d="M212.3,81.7c-0.2-0.4-0.6-0.7-1-0.9c-0.4-0.2-0.9-0.4-1.4-0.4c-0.2,0-0.5,0-0.7,0.1c-0.2,0-0.4,0.1-0.6,0.2
	c-0.2,0.1-0.3,0.2-0.4,0.4c-0.1,0.2-0.2,0.4-0.2,0.6c0,0.4,0.2,0.8,0.6,1c0.6,0.3,1.1,0.5,1.8,0.6c0.5,0.1,0.9,0.2,1.4,0.4
	c0.4,0.1,0.8,0.3,1.1,0.6c0.3,0.2,0.5,0.5,0.7,0.8c0.2,0.4,0.3,0.8,0.3,1.2c0,0.5-0.1,1.1-0.4,1.5c-0.2,0.4-0.5,0.7-0.9,1
	c-0.4,0.3-0.8,0.5-1.3,0.6c-0.5,0.1-1,0.2-1.5,0.2c-0.8,0-1.5-0.2-2.3-0.4c-0.7-0.3-1.4-0.8-1.8-1.4l1.4-1.2c0.3,0.4,0.7,0.8,1.1,1
	c0.5,0.3,1,0.4,1.6,0.4c0.2,0,0.5,0,0.7-0.1c0.2,0,0.4-0.1,0.6-0.2c0.2-0.1,0.3-0.3,0.5-0.4c0.1-0.2,0.2-0.5,0.2-0.7
	c0-0.5-0.3-0.9-0.7-1.1c-0.6-0.3-1.3-0.5-2-0.7c-0.3-0.1-0.7-0.2-1-0.3c-0.4-0.1-0.7-0.3-1-0.5c-0.3-0.2-0.5-0.5-0.7-0.8
	c-0.2-0.4-0.3-0.8-0.3-1.2c0-0.5,0.1-1,0.3-1.4c0.2-0.4,0.5-0.7,0.9-1c0.4-0.2,0.8-0.4,1.3-0.5c0.5-0.1,0.9-0.2,1.4-0.2
	c0.7,0,1.4,0.1,2.1,0.4c0.6,0.3,1.2,0.7,1.6,1.2L212.3,81.7z"/>
<path class="st2" d="M218.2,75.4c0,0.4-0.1,0.7-0.4,0.9c-0.3,0.3-0.6,0.4-1,0.4c-0.4,0-0.7-0.1-0.9-0.4c-0.3-0.2-0.4-0.6-0.4-0.9
	c0-0.4,0.1-0.7,0.4-0.9c0.2-0.2,0.6-0.4,0.9-0.4c0.4,0,0.7,0.1,1,0.4C218.1,74.7,218.2,75.1,218.2,75.4z M217.9,89.3h-2V79.1h2V89.3
	z"/>
<path class="st2" d="M222.9,87.7v1.6h-2V73h2v7.6h0.1c0.4-0.5,0.9-1,1.4-1.3c0.7-0.4,1.4-0.5,2.2-0.5c0.7,0,1.4,0.1,2.1,0.4
	c0.6,0.3,1.2,0.7,1.6,1.1c0.4,0.5,0.8,1.1,1,1.7c0.2,0.7,0.4,1.4,0.4,2.1c0,0.7-0.1,1.4-0.4,2.1c-0.2,0.6-0.6,1.2-1,1.7
	c-0.5,0.5-1,0.9-1.6,1.2c-0.7,0.3-1.4,0.4-2.1,0.4c-0.7,0-1.4-0.2-2.1-0.5C223.8,88.8,223.3,88.3,222.9,87.7L222.9,87.7z
	 M229.7,84.2c0-0.5-0.1-0.9-0.2-1.4c-0.1-0.4-0.4-0.8-0.6-1.2c-0.3-0.3-0.7-0.6-1.1-0.8c-0.5-0.2-1-0.3-1.5-0.3
	c-0.5,0-1,0.1-1.4,0.3c-0.4,0.2-0.8,0.5-1.1,0.8c-0.3,0.3-0.5,0.7-0.7,1.2c-0.3,0.9-0.3,1.9,0,2.8c0.2,0.4,0.4,0.8,0.7,1.2
	c0.3,0.3,0.7,0.6,1.1,0.8c0.4,0.2,0.9,0.3,1.4,0.3c0.5,0,1-0.1,1.5-0.3c0.4-0.2,0.8-0.5,1.1-0.8c0.3-0.3,0.5-0.7,0.6-1.2
	C229.6,85.1,229.7,84.7,229.7,84.2z"/>
<path class="st2" d="M235.9,89.3h-2V73h2V89.3z"/>
<path class="st2" d="M248.2,84.1v0.3c0,0.1,0,0.2,0,0.3h-8.1c0,0.4,0.1,0.8,0.3,1.2c0.2,0.4,0.4,0.7,0.7,1c0.6,0.6,1.5,0.9,2.3,0.9
	c0.6,0,1.2-0.1,1.8-0.4c0.5-0.3,0.9-0.6,1.2-1.1l1.4,1.1c-0.5,0.7-1.2,1.2-1.9,1.6c-1.5,0.6-3.1,0.7-4.6,0.1
	c-0.6-0.2-1.2-0.6-1.7-1.1c-0.5-0.5-0.9-1.1-1.1-1.7c-0.3-0.7-0.4-1.4-0.4-2.2c0-0.7,0.1-1.5,0.4-2.2c0.2-0.6,0.6-1.2,1.1-1.7
	c0.5-0.5,1.1-0.9,1.7-1.1c1.3-0.5,2.8-0.5,4.1,0c0.6,0.2,1.1,0.6,1.6,1.1c0.4,0.5,0.8,1.1,1,1.7C248.2,82.7,248.3,83.4,248.2,84.1z
	 M246.2,83.3c0-0.4-0.1-0.8-0.2-1.1c-0.1-0.3-0.3-0.7-0.5-0.9c-0.2-0.3-0.5-0.5-0.9-0.6c-0.4-0.2-0.8-0.2-1.2-0.2
	c-0.4,0-0.8,0.1-1.2,0.2c-0.4,0.1-0.7,0.4-1,0.6c-0.3,0.3-0.5,0.6-0.7,0.9c-0.2,0.4-0.3,0.7-0.3,1.1H246.2z"/>
<path class="st2" d="M253.7,75.6c1.8,0,3.2,1.5,3.2,3.2c0,1.8-1.5,3.2-3.2,3.2c-1.8,0-3.2-1.5-3.2-3.2
	C250.5,77,251.9,75.6,253.7,75.6C253.7,75.6,253.7,75.6,253.7,75.6z M253.7,81.5c1.5,0,2.8-1.2,2.8-2.7c0-1.5-1.2-2.8-2.7-2.8
	c-1.5,0-2.8,1.2-2.8,2.7c0,0,0,0,0,0c-0.1,1.5,1.1,2.7,2.5,2.7C253.6,81.5,253.6,81.5,253.7,81.5L253.7,81.5z M252.4,76.9h1.4
	c0.9,0,1.3,0.3,1.3,1.1c0,0.6-0.4,1-1,1l1.1,1.7h-0.6l-1-1.6H253v1.6h-0.6L252.4,76.9z M253,78.6h0.6c0.5,0,1,0,1-0.6
	s-0.4-0.6-0.8-0.6H253L253,78.6z"/>
</svg>
